<?xml version="1.0" standalone="no"?>
<!DOCTYPE svg PUBLIC "-//W3C//DTD SVG 20010904//EN"
 "http://www.w3.org/TR/2001/REC-SVG-20010904/DTD/svg10.dtd">
<svg version="1.0" xmlns="http://www.w3.org/2000/svg"
 width="512.000000pt" height="512.000000pt" viewBox="0 0 512.000000 512.000000"
 preserveAspectRatio="xMidYMid meet">

<g transform="translate(0.000000,512.000000) scale(0.100000,-0.100000)"
fill="#000000" stroke="none">
<path d="M1287 5072 c-36 -22 -64 -82 -71 -157 -15 -141 -7 -129 -99 -160 -45
-15 -115 -44 -155 -65 l-72 -38 -73 58 c-117 93 -156 106 -222 74 -52 -25
-301 -283 -308 -320 -10 -52 10 -99 82 -190 l69 -87 -30 -63 c-16 -34 -42
-100 -57 -146 l-29 -83 -103 -12 c-207 -23 -219 -40 -219 -313 0 -195 6 -225
53 -268 19 -18 47 -27 119 -38 51 -8 108 -14 126 -14 24 0 35 -6 42 -22 5 -13
20 -50 33 -83 14 -33 35 -84 48 -113 16 -36 20 -57 14 -66 -6 -8 -40 -53 -77
-101 -109 -144 -104 -170 65 -342 141 -144 172 -166 232 -165 48 0 70 12 172
94 39 32 76 58 82 58 7 0 37 -13 69 -29 31 -15 86 -39 122 -51 83 -30 90 -36
90 -74 0 -17 6 -73 14 -124 16 -103 33 -133 93 -158 47 -20 380 -20 429 1 67
28 87 72 100 222 3 46 12 87 18 91 6 5 47 21 91 37 44 15 106 40 138 57 l58
29 86 -67 c47 -37 103 -73 124 -80 70 -25 92 -13 243 135 204 200 208 222 75
390 -33 40 -59 77 -59 81 0 4 20 50 44 101 24 52 50 114 57 139 7 25 13 46 14
47 0 1 46 7 101 14 54 6 117 19 139 30 71 33 75 48 75 287 l0 210 -27 33 c-35
42 -71 55 -168 64 -115 11 -117 12 -143 96 -13 41 -39 103 -57 139 l-33 65 63
80 c93 120 100 140 70 212 -18 43 -211 244 -274 284 -78 51 -117 40 -256 -70
l-55 -43 -82 40 c-46 22 -113 50 -150 62 -76 24 -68 10 -88 163 -12 92 -19
108 -64 142 -33 25 -33 25 -242 25 -180 0 -213 -3 -237 -18z m361 -957 c178
-42 338 -190 393 -364 29 -91 29 -231 0 -322 -50 -157 -183 -296 -338 -351
-73 -26 -220 -35 -294 -18 -215 49 -389 237 -420 452 -54 373 292 689 659 603z"/>
<path d="M3745 3528 c-168 -16 -202 -46 -212 -192 l-6 -85 -51 -21 c-28 -12
-82 -40 -120 -63 -61 -37 -70 -39 -90 -27 -103 66 -132 80 -171 80 -54 0 -87
-25 -178 -135 -90 -110 -97 -122 -97 -178 0 -48 13 -70 88 -148 l44 -47 -25
-68 c-13 -38 -30 -92 -37 -121 -13 -56 -11 -55 -105 -73 -78 -16 -111 -34
-136 -73 -19 -29 -20 -43 -15 -162 7 -154 17 -194 56 -233 34 -34 65 -42 166
-42 l74 0 28 -62 c16 -35 41 -83 56 -106 l27 -44 -50 -77 c-63 -95 -70 -126
-42 -183 22 -46 194 -198 246 -218 63 -24 114 -3 207 87 l46 46 64 -25 c35
-14 86 -31 115 -38 33 -7 54 -18 57 -28 2 -10 12 -52 21 -95 30 -142 70 -164
267 -146 200 17 231 43 236 195 l4 95 81 39 c45 21 98 48 118 60 l36 22 71
-47 c82 -55 140 -67 189 -41 34 17 181 183 207 233 32 64 19 108 -59 193 -30
33 -55 66 -55 74 0 7 7 31 17 52 9 22 26 72 37 113 l21 75 78 16 c85 18 122
40 151 89 17 30 18 41 7 169 -18 212 -41 241 -191 251 l-92 6 -28 66 c-15 36
-40 85 -54 107 -14 23 -26 45 -26 49 0 3 19 36 43 72 37 57 42 72 42 122 0 68
-4 73 -144 190 -135 113 -180 116 -283 21 l-60 -56 -62 23 c-33 13 -88 30
-121 38 -71 18 -81 28 -90 91 -11 80 -38 128 -84 151 -43 23 -62 23 -216 9z
m295 -816 c30 -12 77 -39 105 -60 274 -208 212 -641 -110 -764 -85 -33 -235
-32 -318 1 -117 46 -220 155 -258 273 -18 57 -21 84 -17 166 4 84 9 105 37
161 59 116 174 212 287 240 65 16 212 7 274 -17z"/>
<path d="M1904 2036 c-41 -18 -72 -60 -79 -105 -15 -90 -14 -88 -58 -101 -23
-7 -69 -24 -102 -39 l-61 -28 -43 33 c-50 39 -101 56 -143 47 -31 -6 -141
-102 -180 -156 -14 -19 -21 -44 -20 -72 0 -47 11 -72 54 -126 l30 -37 -23 -43
c-12 -24 -30 -66 -39 -94 l-17 -50 -68 -12 c-122 -23 -147 -54 -153 -188 -7
-158 25 -208 148 -229 l73 -12 22 -59 c12 -33 28 -72 35 -87 11 -23 11 -31 -4
-50 -79 -109 -89 -139 -62 -201 19 -43 145 -166 182 -176 42 -11 89 3 151 45
l53 37 69 -32 c37 -17 72 -31 77 -31 25 -1 36 -23 44 -84 9 -75 27 -108 73
-136 27 -17 51 -20 143 -20 l111 0 35 32 c38 35 58 80 58 132 0 17 4 36 8 41
4 6 43 24 87 41 44 17 87 34 95 38 9 4 35 -9 68 -33 96 -73 143 -68 244 27 38
36 76 78 84 93 29 58 11 131 -49 196 l-20 23 35 77 c20 43 39 88 43 101 5 17
14 22 43 23 65 1 113 22 146 62 31 38 31 40 31 151 0 108 -1 114 -28 149 -27
36 -42 43 -141 64 -36 8 -40 12 -63 73 -50 133 -49 125 -18 162 72 85 70 149
-8 235 -114 124 -173 142 -266 78 -28 -19 -55 -35 -61 -35 -6 0 -36 13 -68 29
-31 15 -74 34 -94 40 -35 12 -38 15 -38 52 0 55 -27 116 -64 142 -26 19 -46
22 -136 25 -74 2 -114 -2 -136 -12z m236 -651 c91 -30 194 -134 220 -223 33
-112 17 -224 -45 -315 -43 -65 -92 -104 -168 -135 -135 -54 -311 -9 -403 105
-124 152 -110 365 34 495 100 90 228 116 362 73z"/>
</g>
</svg>
